<?xml version="1.0"?>
<svg xmlns="http://www.w3.org/2000/svg" version="1.2" baseProfile="tiny" width="800" height="683" viewBox="0 0 800 683" stroke-linecap="round" stroke-linejoin="round">
<g id="nomoi_okxe">
<path d="M 250.7457 125.5746 244.8476 128.6114 247.642 136.6335 250.1508 139.0604 247.3963 143.14 244.7031 150.1977 244.7959 153.1824 241.6619 158.0929 243.0012 168.0425 244.8187 172.5906 249.8759 176.2354 245.212 178.0266 240.1048 178.8681 237.427 176.6361 237.3478 172.9004 233.1503 170.572 228.5768 169.6142 226.1765 166.6922 228.1729 160.2666 224.1998 155.5205 220.4296 157.7292 218.5082 162.1252 215.8045 160.9 214.0933 153.8777 209.003 154.4195 209.123 152.2565 213.0869 150.1796 215.2321 144.5323 214.418 143.5475 216.1392 143.1259 228.9959 132.2821 233.309 126.6061 233.4931 121.8123 237.763 121.8079 239.823 119.6916 243.8463 120.1345 246.3841 121.7416 248.1436 125.3049 250.7457 125.5746 Z"/>
<path d="M 322.514 349.9729 326.5035 351.7179 328.6004 360.1113 329.1278 364.5868 326.4443 364.2854 323.6439 367.8699 319.582 369.1459 318.416 366.6133 308.2196 368.3172 303.3919 373.1318 292.0845 372.8631 287.0686 375.2261 286.531 373.5362 282.1205 371.9481 282.3883 364.48 286.4114 363.2582 290.0337 360.7437 287.1725 358.0525 288.4222 354.33 283.1844 353.9193 287.3954 352.7645 295.4416 352.5223 295.8044 347.544 297.9408 344.9043 304.1122 344.4733 302.5109 349.7117 308.8479 350.8525 309.1099 354.4998 316.5532 357.0916 322.0502 353.8633 322.514 349.9729 Z"/>
<path d="M 125.2797 155.6125 121.6969 157.7119 123.9448 160.7926 125.4436 165.3079 128.5345 164.3342 131.0569 165.8074 130.3934 169.6792 127.8661 173.8184 130.0919 175.9143 131.5955 182.9017 136.3336 185.0502 137.5964 183.2191 141.611 182.1848 146.4015 185.4242 143.8583 185.9187 142.6805 190.4191 140.932 190.5229 140.7037 197.4502 136.2592 198.8761 132.6544 203.475 136.9726 208.8769 138.3221 218.1561 136.6278 220.0721 134.5378 217.2946 131.8926 220.217 126.3266 220.8668 124.3216 225.6765 124.1381 228.5613 121.8736 230.2692 112.0265 232.3014 108.2367 234.3324 106.3295 231.6685 102.677 230.8394 99.3056 237.9589 97.7474 239.7357 96.8031 229.8064 92.0276 215.3207 88.0299 214.4482 85.7841 210.9282 85.7697 205.9819 87.6562 202.3223 84.1547 196.4504 85.1411 193.0812 81.2621 192.3046 77.6417 189.7392 79.4395 187.3556 77.5121 179.8418 74.1732 176.397 74.8275 174.3939 72.5531 169.7583 77.2056 170.1154 81.2896 162.9809 87.916 161.2677 90.7544 163.251 99.9935 160.2679 101.8208 154.873 100.9197 151.2434 104.1192 148.8691 103.3882 143.6907 105.4907 139.6872 108.8447 135.8944 116.2306 137.6797 119.3923 141.3314 124.5307 150.428 125.2797 155.6125 Z"/>
<path d="M 226.9736 63.3781 226.7176 70.4364 224.964 73.6249 220.9657 74.0669 221.1886 78.6583 224.1171 78.2066 228.2015 80.2238 228.8448 83.979 234.0231 89.2625 237.8269 87.1471 248.3593 91.4963 249.4535 91.3142 247.7696 93.6285 240.5412 94.7803 243.5269 102.4576 240.0061 101.99 238.1893 103.8296 233.7652 106.6689 228.22 106.8704 224.0464 110.2561 220.1581 105.5657 216.8157 104.3758 210.3241 103.6678 207.4311 100.9442 205.7199 103.7871 200.1264 105.2351 194.4297 105.8468 188.1686 104.2256 187.5748 101.6311 182.9235 96.466 182.0535 91.224 180.4554 89.2218 184.8422 87.3726 189.2852 84.3891 186.2485 81.0972 187.2523 76.9354 195.8804 69.6373 195.7434 65.4897 200.3838 62.0502 204.2755 61.7151 207.4879 59.499 211.9472 62.8342 215.1554 59.6387 221.8781 58.8652 226.3137 61.1662 226.9736 63.3781 Z"/>
<path d="M 193.2647 264.4716 190.478 266.1189 187.2657 270.8163 184.9827 276.3182 188.7598 279.7454 187.9735 284.156 192.5318 289.0612 193.1426 292.1405 192.911 296.1542 189.2583 297.8917 184.1821 296.4693 182.4338 301.5358 179.6817 299.7471 172.9297 299.5818 164.2006 295.9858 162.8481 289.805 164.7481 285.0369 168.1348 284.9149 167.5799 281.7653 159.7414 280.9334 158.8062 276.6453 159.8282 273.0205 153.9824 270.6329 149.9119 267.9849 154.8382 259.417 151.8859 256.3483 152.0283 253.6787 154.2649 252.4968 160.7151 246.9494 163.0933 248.9109 167.1242 246.347 174.3417 245.7109 175.1287 252.4742 176.9606 255.7538 177.3413 259.2835 184.0764 258.2904 187.0751 255.7587 192.6961 260.8972 193.2647 264.4716 Z"/>
<path d="M 241.5813 315.0284 235.0187 312.8397 238.0802 325.1442 243.6767 329.5018 243.319 334.7183 238.9228 341.1278 236.5595 337.0885 235.2098 332.2744 231.1444 327.6636 225.3059 331.0779 227.4251 334.0361 224.8851 337.0571 223.3187 335.3038 215.4922 333.9416 211.3008 336.2129 200.3691 330.4194 191.4927 329.0456 188.3573 332.4276 184.9216 332.1256 187.4301 328.1528 187.9142 322.8932 196.7943 318.6952 196.4648 314.4176 198.044 311.4766 194.4273 309.9734 197.1016 306.735 195.6592 303.3865 196.4139 299.4532 198.9968 298.0379 197.1906 293.6596 206.4901 297.1637 207.4498 299.3896 210.5491 298.2254 211.2865 295.2649 215.9525 293.4435 220.103 290.323 221.5561 292.2148 219.9199 296.4627 220.6871 299.1637 228.3316 297.6039 234.0676 302.6041 235.6898 305.6384 239.5769 305.8276 240.6642 308.5126 241.5813 315.0284 Z"/>
<path d="M 152.0283 253.6787 151.8859 256.3483 154.8382 259.417 149.9119 267.9849 153.9824 270.6329 159.8282 273.0205 158.8062 276.6453 159.7414 280.9334 167.5799 281.7653 168.1348 284.9149 164.7481 285.0369 162.8481 289.805 164.2006 295.9858 172.9297 299.5818 179.6817 299.7471 182.4338 301.5358 184.1821 296.4693 189.2583 297.8917 192.911 296.1542 193.1426 292.1405 197.1906 293.6596 198.9968 298.0379 196.4139 299.4532 195.6592 303.3865 197.1016 306.735 194.4273 309.9734 198.044 311.4766 196.4648 314.4176 196.7943 318.6952 187.9142 322.8932 187.4301 328.1528 184.9216 332.1256 183.4186 330.2147 179.895 332.0485 177.7791 336.1736 173.1854 334.1387 168.4661 333.386 166.8826 334.8454 156.7027 338.2881 154.876 332.4777 152.1 332.628 151.2366 329.6879 147.8926 329.1429 147.4741 323.8876 144.4792 318.9157 142.6801 320.1228 146.2171 325.8638 145.12 329.7908 137.4989 335.7334 132.9751 338.1192 129.9984 337.565 127.2482 330.9338 129.1451 328.6492 128.4469 324.342 126.0233 318.9058 127.1739 315.163 121.5982 317.6029 120.6952 313.4147 121.654 307.7515 119.1139 303.367 119.1737 301.2256 114.1246 301.0448 112.166 297.4475 110.9308 288.9639 107.8231 289.0665 106.2851 291.1169 102.2609 291.9186 99.9599 287.9213 100.4274 282.8954 104.8479 281.151 101.6269 275.6 112.2463 276.3491 115.0498 274.5326 118.6545 274.2559 122.4439 279.1131 127.7905 281.0762 128.1403 277.7701 132.4178 279.7772 131.8782 273.007 132.8647 269.7916 129.6409 264.5784 128.1103 261.2101 130.783 257.329 135.6993 256.1255 142.2833 258.0221 150.2733 252.6205 152.0283 253.6787 Z"/>
<path d="M 249.8759 176.2354 252.9793 178.1928 253.543 182.5181 255.3641 186.8474 257.82 188.1141 260.6046 191.5859 263.9723 193.5961 265.0671 200.869 268.5368 213.0344 259.9117 219.8948 256.6773 220.2984 256.0247 224.0522 252.7434 227.3503 253.576 230.6387 248.8719 230.6824 244.7773 232.7297 246.3659 236.4809 248.4479 237.1509 247.8945 242.7797 239.0681 246.3054 240.9744 252.3624 240.5071 255.8908 236.6554 258.857 232.6213 255.2725 229.2763 250.3196 220.1902 248.1839 218.0068 244.6754 215.5466 242.8822 214.6724 238.7549 215.7546 235.3353 218.6169 234.499 215.6598 226.2732 217.4241 223.8113 215.4031 221.5147 213.1215 221.5748 212.4155 217.2146 215.3306 213.9015 215.6013 210.3497 211.3188 211.5443 209.572 206.7691 205.2635 207.2566 201.6021 199.2177 197.5116 202.4544 195.9241 200.442 194.0624 193.2005 198.8175 187.879 193.4059 187.1895 192.1755 182.2109 192.8189 179.9939 189.5467 176.7276 194.7699 174.5512 197.0324 170.069 205.898 161.6483 207.8816 158.6922 209.003 154.4195 214.0933 153.8777 215.8045 160.9 218.5082 162.1252 220.4296 157.7292 224.1998 155.5205 228.1729 160.2666 226.1765 166.6922 228.5768 169.6142 233.1503 170.572 237.3478 172.9004 237.427 176.6361 240.1048 178.8681 245.212 178.0266 249.8759 176.2354 Z"/>
<path d="M 270.8446 463.689 272.5689 466.482 271.4475 470.853 275.9558 481.6503 280.5315 491.0625 276.4641 493.4063 273.7047 496.2755 274.8706 500.2744 274.3069 505.0841 277.0014 509.1067 281.8457 511.7986 284.2678 518.8848 287.6113 522.4647 283.0983 523.2247 282.0095 524.5798 278.3564 522.9055 277.117 517.9237 274.652 515.0498 269.2138 515.367 266.0942 508.4399 262.7339 506.6284 262.3158 502.1851 258.252 498.9294 254.8508 487.9723 244.784 487.0894 238.9424 488.7878 237.6031 490.0802 238.4679 493.8901 234.168 496.5303 235.3616 499.432 232.2999 501.7531 234.5124 505.5281 230.4475 505.504 229.9669 514.1559 232.3312 517.8021 231.0906 526.948 229.5176 526.3082 228.6962 521.5807 221.6008 518.9318 220.0964 515.7772 223.2027 510.9303 221.5064 506.8395 221.3606 500.2821 219.1288 493.3908 221.5988 492.683 224.6155 484.4729 221.3671 478.6404 220.6416 474.0576 221.0748 468.5021 218.545 463.4853 214.9905 463.2484 217.4196 458.8046 215.6912 456.4462 213.6448 450.9558 211.3747 441.2161 216.8278 440.004 217.3276 443.2115 222.8225 446.9198 227.0845 446.5728 227.6874 441.6955 225.6473 436.1408 226.799 434.9364 231.9379 437.164 235.4902 436.8111 237.3887 439.9887 241.5086 438.9001 241.7232 445.4586 243.4216 447.9065 243.6943 451.4524 249.2339 458.939 247.3964 461.44 249.1757 464.4422 253.4672 462.6683 256.6565 466.6705 260.9539 468.419 262.5122 466.1284 268.7613 466.0442 270.8446 463.689 Z"/>
<path d="M 470.6303 634.7778 471.886 637.1538 468.9025 643.4307 464.5387 643.9978 463.5327 647.425 465.2554 652.7911 467.2319 653.1485 472.9662 657.4506 475.5831 662.0557 475.9023 664.822 472.041 665.7659 465.1306 665.4143 461.6952 664.2764 458.1855 665.9443 454.6424 665.6632 452.3892 667.5474 447.0435 669.6435 442.6314 668.9379 439.3495 670.931 435.1093 670.078 432.9676 671.3692 425.3032 671.5403 418.436 670.421 414.8595 672.1542 410.6924 671.9723 412.0864 663.8406 411.3968 658.9133 409.0378 655.6249 410.2469 653.31 414.6105 652.1282 414.5491 648.0444 417.914 647.0113 422.0326 647.2323 425.1207 640.1797 425.1373 635.5472 421.8582 627.8997 424.8956 628.16 425.301 624.7187 428.6029 622.949 434.6929 625.7731 434.8906 630.6743 440.2392 631.1503 445.2067 630.4438 449.9941 631.8869 460.9666 630.8817 466.6248 635.4491 470.6303 634.7778 Z"/>
<g>
<path d="M 469.8835 124.0246 474.8816 124.9684 477.937 127.5781 478.0358 131.8169 470.8308 134.8459 467.9192 134.7076 460.1568 128.5679 462.8152 125.0568 467.9418 123.4584 469.8835 124.0246 Z"/>
<path d="M 472.4403 88.7143 471.2485 79.2576 473.2413 78.2791 476.0575 80.3883 478.4938 77.5144 486.2642 75.2744 485.9663 72.718 488.8334 71.4327 490.5309 64.4908 495.7607 64.1452 493.3172 61.3244 491.2136 55.758 493.399 47.5441 491.9757 44.7115 496.9213 43.5653 499.5998 40.9125 508.4849 39.6626 511.408 31.8181 509.8915 27.9278 512.0188 23.3682 511.3454 20.2858 509.0769 19.8084 509.4069 15.213 505.0282 13.054 503.1591 10.7804 502.4189 6.0476 504.0021 4.315 510.2954 1.0001 518.4888 4.1974 522.3091 3.7289 530.4263 6.5346 537.2388 12.6977 541.7086 13.6816 541.9532 21.9786 543.6915 27.9596 543.8268 31.7731 545.5915 35.7536 545.2019 39.3045 542.2587 41.9255 539.6429 40.2274 535.5382 41.6939 529.2125 48.7878 523.166 48.9973 523.1559 55.7889 522.0054 56.4466 523.8064 64.6835 522.4375 66.6398 523.9232 70.1438 526.5 71.8897 523.94 76.459 523.6806 79.8862 518.6668 83.6289 518.1759 85.9387 515.1588 87.491 515.0692 91.0207 511.568 93.3659 509.4594 97.0256 509.2601 99.811 505.6018 101.4101 502.6295 101.2227 502.8794 97.3986 500.2225 92.6817 496.2056 90.3339 490.1837 90.5279 485.9182 89.6439 478.0644 90.097 472.4403 88.7143 Z"/>
</g>
<g>
<path d="M 535.0913 398.819 529.6857 406.8347 522.3925 411.6542 515.5065 412.6639 512.9333 415.8917 505.338 416.9068 505.3245 414.5986 511.213 406.1611 518.5939 404.3436 522.0687 405.4483 530.4749 399.665 535.0913 398.819 Z"/>
<path d="M 565.9751 386.0984 572.4799 386.3869 575.1831 389.0054 578.6807 389.5869 580.281 388.2544 586.7361 389.1443 586.3361 391.303 589.9988 394.6394 582.7756 395.9912 576.2917 399.2493 575.6624 402.0916 570.0922 402.9713 567.9678 401.7794 565.3499 397.358 562.9973 396.1529 556.6746 397.048 552.8539 399.785 550.7349 394.3655 553.0756 391.1935 563.5132 386.1417 565.9751 386.0984 Z"/>
</g>
<g>
<path d="M 267.9738 529.4185 271.7678 536.3016 275.2176 538.1652 279.7012 543.4337 275.716 545.0749 274.9498 547.8801 275.0273 553.7191 270.3657 552.9459 266.8906 551.1096 264.6424 547.7447 263.4844 543.7055 265.5219 542.0089 265.2586 537.8517 262.9544 535.203 265.2796 529.502 267.9738 529.4185 Z"/>
<path d="M 283.0502 441.3027 285.4075 443.1476 283.0265 445.5278 280.7155 442.3575 283.0502 441.3027 Z"/>
<path d="M 315.622 432.6977 311.8662 435.1795 311.9175 437.5272 307.4839 437.6592 303.4839 439.9357 302.4063 437.8037 312.1357 432.8479 315.622 432.6977 Z"/>
<path d="M 310.5647 413.8917 311.0888 419.599 307.4453 418.8798 310.5647 413.8917 Z"/>
<path d="M 305.7992 428.2833 308.1866 423.3149 299.5185 423.3052 289.851 417.3697 286.5065 417.0363 285.5693 415.1412 288.4371 410.0307 293.368 412.4891 297.3777 416.3541 301.522 414.4831 300.7713 412.088 297.0527 407.9156 302.7685 405.8153 305.1657 408.574 303.007 412.3258 302.9626 415.3172 306.9138 419.3213 313.1758 424.0575 313.0179 426.5191 305.7992 428.2833 Z"/>
<path d="M 311.2978 393.0044 316.9179 393.1951 316.1929 395.551 311.8162 402.1406 309.5009 402.3771 308.975 398.6081 305.469 393.9807 311.2978 393.0044 Z"/>
<path d="M 325.3579 376.3649 322.2629 377.911 318.8385 374.7999 317.5269 371.2942 322.9732 370.8489 326.5363 373.3921 325.3579 376.3649 Z"/>
<path d="M 311.0489 370.4016 313.7265 371.2145 315.4625 374.9273 314.5465 379.3529 311.2567 380.3517 308.1351 383.0365 304.5106 381.1207 305.3819 377.8992 309.5966 378.0659 308.5199 372.7963 311.0489 370.4016 Z"/>
</g>
<g>
<path d="M 304.6851 160.8187 306.9519 162.0244 310.9386 169.4662 314.2291 172.1716 326.1676 177.1134 326.9083 182.6326 320.1105 182.2365 312.6089 178.2029 308.8438 177.3163 303.4322 178.1583 304.1151 173.8631 298.5 164.4717 300.5575 155.0565 303.0133 160.1698 304.6851 160.8187 Z"/>
<path d="M 332.6231 112.3039 334.6284 116.3772 338.4043 119.9148 342.7707 120.8412 343.2429 123.4914 338.1605 123.7862 337.3595 126.6132 338.7133 131.3203 342.6061 135.8605 348.874 137.5431 351.649 136.3519 351.2032 143.6978 348.1078 140.5809 344.6777 138.7616 338.0832 138.7091 334.5638 141.4467 330.9975 139.8074 328.3698 142.6401 327.8097 146.3648 331.0172 151.9475 332.7492 152.3245 334.2592 155.9913 344.2619 159.1158 349.1081 162.252 349.4517 166.8796 351.4217 168.9146 352.4268 173.7702 350.9245 174.4589 346.6455 180.6312 343.5453 178.1627 343.5838 176.2555 338.5817 172.2096 334.6269 168.0341 333.7585 163.0847 330.7799 160.5866 330.056 158.1331 324.5132 152.4333 319.5773 152.3793 315.3846 151.1807 313.1311 149.1581 307.7448 147.2554 304.9553 147.4242 300.4892 153.9422 297.4624 151.0308 286.1732 147.2509 284.9964 145.7756 277.0675 142.1703 276.1217 139.7862 278.7843 138.4134 277.9551 135.7765 281.1284 132.9345 284.9865 137.3888 288.0071 131.727 287.751 127.4017 294.1327 124.9027 296.8633 126.4541 299.6074 125.4375 299.0892 121.8043 303.6407 121.708 306.2907 120.1221 306.9992 116.7842 311.7273 117.3129 314.0474 118.7122 316.7719 116.3599 324.0683 115.1197 324.4749 112.702 332.6231 112.3039 Z"/>
</g>
<path d="M 323.076 39.4442 323.6871 44.7136 329.0401 45.6161 330.186 48.0294 328.4719 52.0011 330.1738 57.5012 332.2491 57.4844 336.0963 62.4285 343.826 65.7655 346.725 68.1823 349.5538 65.3332 352.7806 67.9454 353.5656 71.5989 359.5904 75.8367 359.3201 80.6287 350.0307 91.0826 345.8093 94.1385 340.4817 96.1823 341.0345 98.0755 339.5407 97.4593 333.3341 100.2007 331.2022 97.9043 319.7808 97.3191 316.3264 95.0985 315.6546 92.8055 312.2732 91.7907 309.8291 93.198 308.7926 89.7478 303.764 90.2676 302.9491 84.9089 300.4316 81.5153 297.4095 81.487 294.358 75.6024 293.4752 71.4521 290.3529 71.7235 291.8932 66.9209 290.1449 64.459 287.1743 64.5023 285.2647 62.6663 280.7849 61.2272 279.7864 59.1233 275.1451 55.0508 271.6902 56.916 268.6073 56.6172 267.0356 52.5474 268.7636 50.5461 267.8475 42.4718 279.4301 43.3788 282.4172 44.5854 290.0343 44.6977 293.5083 43.1216 293.5884 40.1187 297.8319 36.9461 300.7213 36.9037 301.9819 40.3715 309.4274 36.3954 315.6962 36.5686 317.5953 38.4206 323.076 39.4442 Z"/>
<path d="M 194.4297 105.8468 192.7342 109.7548 192.6261 114.2764 194.6184 115.9842 193.3055 119.407 195.4667 121.7911 195.638 124.862 199.8463 125.9316 203.0422 129.1475 208.8059 130.8518 207.6875 134.6308 210.0428 137.9281 210.1757 141.1007 214.418 143.5475 215.2321 144.5323 213.0869 150.1796 209.123 152.2565 209.003 154.4195 207.8816 158.6922 205.898 161.6483 197.0324 170.069 194.7699 174.5512 189.5467 176.7276 185.3031 176.0368 184.4037 173.7367 186.0426 171.1086 184.1944 167.6898 184.2414 162.2167 180.1618 163.414 177.8457 160.4708 178.1979 157.3225 174.1211 153.365 169.8996 156.9172 167.9642 157.3 161.7597 148.7219 152.4346 148.7652 150.4467 150.8257 145.6875 152.7612 144.6643 154.6458 140.8716 155.9311 139.4817 154.0969 136.7346 156.153 132.9226 156.0788 130.3283 152.9566 131.5689 148.9928 130.3315 147.0317 130.962 140.5544 132.2931 138.2375 136.286 136.5685 142.4055 137.5329 142.1621 133.8865 143.7469 132.3714 146.6573 135.9957 151.5906 131.1754 152.5504 133.4534 156.6493 133.6116 160.3688 131.6015 161.2637 125.7672 164.8841 121.7363 164.414 120.3586 166.1484 117.5913 170.822 114.8165 177.6467 113.8839 179.066 114.5389 184.0943 113.0627 186.3828 109.6072 185.5137 107.8154 188.1686 104.2256 194.4297 105.8468 Z"/>
<path d="M 238.1893 103.8296 238.8286 107.1294 242.332 107.4945 247.6885 113.5674 248.788 118.2622 252.0432 121.3599 250.7457 125.5746 248.1436 125.3049 246.3841 121.7416 243.8463 120.1345 239.823 119.6916 237.763 121.8079 233.4931 121.8123 233.309 126.6061 228.9959 132.2821 216.1392 143.1259 214.418 143.5475 210.1757 141.1007 210.0428 137.9281 207.6875 134.6308 208.8059 130.8518 203.0422 129.1475 199.8463 125.9316 195.638 124.862 195.4667 121.7911 193.3055 119.407 194.6184 115.9842 192.6261 114.2764 192.7342 109.7548 194.4297 105.8468 200.1264 105.2351 205.7199 103.7871 207.4311 100.9442 210.3241 103.6678 216.8157 104.3758 220.1581 105.5657 224.0464 110.2561 228.22 106.8704 233.7652 106.6689 238.1893 103.8296 Z"/>
<path d="M 236.6554 258.857 236.0581 261.2897 236.8084 266.9525 241.1941 268.2307 248.5942 266.5357 251.8555 270.1215 255.5159 271.8718 263.2695 272.1746 268.9426 275.1513 275.6346 272.0014 273.3711 277.7604 271.4883 276.9361 267.867 280.1852 263.1128 279.333 261.2412 282.9657 255.5715 284.9272 248.7392 283.5726 246.9977 281.2972 243.8893 280.7204 239.4832 283.4316 241.5786 289.0015 244.4706 289.2022 251.0183 287.4682 256.6928 293.897 260.7868 293.1861 264.3156 296.0048 266.2639 294.0685 271.5261 297.234 276.3919 296.2638 279.1226 300.2218 278.9674 303.832 280.583 307.5822 282.563 309.0625 285.1406 306.9869 288.5033 306.7901 288.8978 303.7807 293.5554 307.4178 298.5473 307.9221 300.0333 311.2441 298.2807 314.8808 299.1356 317.9769 302.8795 319.0242 299.5992 318.9913 293.0318 321.4046 290.2528 320.7588 289.9952 318.3155 285.4367 315.9301 283.4136 313.0063 278.8377 313.5796 278.1116 316.9741 274.4476 317.2989 270.2332 314.8949 264.3193 316.2399 263.0614 312.3681 256.0617 312.5197 252.0951 316.4233 245.7594 319.7727 241.5813 315.0284 240.6642 308.5126 239.5769 305.8276 235.6898 305.6384 234.0676 302.6041 228.3316 297.6039 220.6871 299.1637 219.9199 296.4627 221.5561 292.2148 220.103 290.323 215.9525 293.4435 211.2865 295.2649 210.5491 298.2254 207.4498 299.3896 206.4901 297.1637 197.1906 293.6596 193.1426 292.1405 192.5318 289.0612 187.9735 284.156 188.7598 279.7454 184.9827 276.3182 187.2657 270.8163 190.478 266.1189 193.2647 264.4716 193.8306 268.0875 198.3272 268.0707 201.7561 266.1233 201.1333 263.6654 206.8402 261.5558 210.7952 258.9397 209.4362 256.1927 212.0903 254.2683 218.0068 244.6754 220.1902 248.1839 229.2763 250.3196 232.6213 255.2725 236.6554 258.857 Z"/>
<g>
<path d="M 519.7491 315.679 525.8965 317.6301 523.93 319.2867 519.7491 315.679 Z"/>
<path d="M 471.8359 310.3119 475.6473 311.8553 474.8546 317.2422 469.4841 312.0171 471.8359 310.3119 Z"/>
<path d="M 506.0405 310.2867 509.5838 310.7435 511.4152 314.0622 517.2039 314.6707 516.8093 323.1307 515.5012 327.6724 517.1857 339.0889 513.4806 342.17 514.5202 346.1776 513.2213 348.466 508.5791 349.5342 507.6414 353.1708 503.3726 352.5189 497.127 347.3864 495.4714 343.2874 500.0517 339.7723 502.7011 339.9927 504.7133 332.5332 501.625 328.1442 500.6903 324.1237 494.3764 321.0295 491.8719 316.3018 493.4015 312.7195 506.0405 310.2867 Z"/>
</g>
<path d="M 224.8021 355.6783 225.117 359.7974 223.8099 367.382 220.7263 370.9753 216.6935 373.9137 214.369 373.892 214.6318 377.561 212.8911 380.2235 215.8255 385.2524 210.6234 386.41 208.7583 389.6426 203.1643 386.738 199.2056 390.6367 193.9388 388.7083 191.2162 386.4496 187.681 385.3561 186.7789 382.0622 182.3177 375.3926 179.7041 374.7053 169.0173 383.2155 167.1897 378.8812 161.2277 376.7919 156.3397 375.9937 153.6525 372.4175 153.0421 365.7784 146.246 360.3309 145.5164 357.8192 146.7809 355.6741 147.2829 348.7893 150.0055 349.9782 154.298 348.8927 158.3135 352.189 165.3221 354.3534 170.8147 351.6308 173.968 347.896 175.9514 342.1824 179.8589 338.4348 184.7608 335.5911 186.8364 336.9674 193.0797 336.9922 197.0321 338.2982 198.2857 341.1667 203.342 344.0494 206.0351 344.4145 207.4781 347.6887 212.5192 351.6321 216.7757 352.7194 221.873 352.2377 224.8021 355.6783 Z"/>
<path d="M 186.2485 81.0972 189.2852 84.3891 184.8422 87.3726 180.4554 89.2218 182.0535 91.224 182.9235 96.466 187.5748 101.6311 188.1686 104.2256 185.5137 107.8154 186.3828 109.6072 184.0943 113.0627 179.066 114.5389 177.6467 113.8839 170.822 114.8165 166.1484 117.5913 164.414 120.3586 163.0859 116.87 160.5013 115.0932 159.8896 112.4474 155.1645 112.6021 155.7043 107.4291 153.8023 104.1699 151.1308 103.2629 145.2847 97.5847 141.0114 107.4936 138.3517 108.0868 134.5657 111.2523 130.6747 110.3797 130.9871 105.5321 128.6013 101.2059 125.6441 98.2967 126.0834 86.8112 136.1905 87.2479 139.0257 86.9085 143.1234 84.5668 146.7264 86.9783 154.3024 85.3536 158.568 81.6453 162.0344 82.8669 166.6388 82.6574 169.6042 86.8643 175.7692 83.7677 178.4849 80.0267 183.9354 81.6347 186.2485 81.0972 Z"/>
<g>
<path d="M 81.1966 240.5985 75.9724 239.1885 71.7122 239.1134 68.8032 236.0121 72.0528 232.6833 74.6938 232.2511 76.4704 235.4502 79.4263 236.5971 81.1966 240.5985 Z"/>
<path d="M 121.8736 230.2692 120.1257 233.5456 121.4903 235.2013 118.7459 240.0009 114.4081 243.1996 111.2053 244.1874 114.2725 249.9107 108.9257 255.6685 106.4771 256.9051 105.4834 257.4832 104.1321 258.0843 104.0364 258.1225 104.4183 263.7052 101.6489 267.552 104.1539 268.7107 99.9778 272.9206 98.244 268.4247 98.7381 263.3237 95.5564 259.3467 91.36 256.5355 87.2462 250.4862 82.0676 245.4095 82.2668 240.4554 85.8498 237.7171 89.9728 238.038 94.8621 235.2062 97.7474 239.7357 99.3056 237.9589 102.677 230.8394 106.3295 231.6685 108.2367 234.3324 112.0265 232.3014 121.8736 230.2692 Z"/>
</g>
<g>
<path d="M 371.107 368.9183 372.362 372.8944 368.593 372.1537 371.107 368.9183 Z"/>
<path d="M 324.2105 336.1172 319.0201 334.6355 312.8416 333.8328 307.8166 330.0163 309.0087 326.9303 304.7054 324.237 298.2828 327.2096 294.4635 328.2616 296.7866 322.8627 299.5645 321.7441 302.4117 320.5193 305.3783 321.6715 309.5308 321.6516 313.2435 323.5752 315.4747 320.8538 319.385 324.3539 320.1351 329.0311 322.478 330.4742 322.3297 333.641 324.2105 336.1172 Z"/>
<path d="M 388.7813 274.9896 395.461 279.9328 395.1889 284.1272 403.188 291.2512 402.2101 294.5776 398.1757 295.5624 394.0183 291.7966 394.4108 288.4814 388.3679 286.9984 383.8843 284.1953 386.6933 280.7918 385.3171 277.9403 388.7813 274.9896 Z"/>
<path d="M 297.7313 268.7306 303.1338 271.874 303.0402 275.245 306.5647 277.1036 306.8325 281.6114 310.2178 288.6939 313.6651 290.1043 315.4577 292.4419 319.3505 293.9186 322.2599 296.6612 326.6275 296.8494 328.6505 295.7325 332.3235 301.485 335.8011 302.3818 340.0565 304.8494 342.6934 304.0764 347.3288 305.916 353.9357 303.5889 360.3181 305.3148 360.9063 313.2715 368.6358 319.203 365.2879 323.2269 364.9698 332.2819 367.2688 333.5601 367.5436 336.4719 370.3793 343.8509 370.1104 348.4494 371.6352 350.9365 377.8902 355.5256 381.8777 355.4832 386.5984 356.8679 393.921 356.8118 396.4515 364.6469 394.0683 372.681 389.1394 375.5928 385.795 370.2346 381.3141 370.1024 379.7576 374.3941 377.0775 371.9994 374.6264 363.9535 370.8085 361.4664 367.056 361.8125 367.1776 354.8976 365.1499 349.4982 359.4821 345.6971 358.2263 343.3586 359.5348 340.0454 355.311 337.4903 354.2422 331.9248 350.4383 331.0231 347.7394 332.7177 342.7427 333.0417 338.7072 331.1296 335.4727 332.6289 325.5881 330.4247 323.4937 331.401 321.6204 326.8927 322.0577 317.5677 319.5845 314.4233 312.9425 312.8198 311.689 308.3809 308.3259 306.7098 307.7517 304.5392 303.8882 302.2797 300.7788 299.264 298.8859 295.8081 292.1702 292.0243 289.7461 288.9812 284.9318 286.9113 279.8954 287.8223 277.3029 286.4225 276.4995 283.79 273.3236 283.8696 273.5563 286.7898 270.9158 288.3261 265.3251 287.9672 261.0412 289.0678 262.6503 284.9056 273.9627 281.1717 277.9853 277.8444 280.4881 278.0867 281.1859 274.1812 284.1479 271.6504 290.0509 271.9779 295.755 268.6873 297.7313 268.7306 Z"/>
</g>
<path d="M 189.5467 176.7276 192.8189 179.9939 192.1755 182.2109 193.4059 187.1895 186.9519 186.126 183.912 187.597 178.4061 184.7886 174.8887 186.3497 170.9674 185.0533 168.1883 182.5225 163.6986 181.776 156.7908 181.9979 154.3844 187.1855 149.4201 188.1539 146.4015 185.4242 141.611 182.1848 137.5964 183.2191 136.3336 185.0502 131.5955 182.9017 130.0919 175.9143 127.8661 173.8184 130.3934 169.6792 131.0569 165.8074 128.5345 164.3342 125.4436 165.3079 123.9448 160.7926 121.6969 157.7119 125.2797 155.6125 128.5775 156.3581 130.3283 152.9566 132.9226 156.0788 136.7346 156.153 139.4817 154.0969 140.8716 155.9311 144.6643 154.6458 145.6875 152.7612 150.4467 150.8257 152.4346 148.7652 161.7597 148.7219 167.9642 157.3 169.8996 156.9172 174.1211 153.365 178.1979 157.3225 177.8457 160.4708 180.1618 163.414 184.2414 162.2167 184.1944 167.6898 186.0426 171.1086 184.4037 173.7367 185.3031 176.0368 189.5467 176.7276 Z"/>
<path d="M 330.9071 385.0659 328.5303 379.66 325.3579 376.3649 326.5363 373.3921 322.9732 370.8489 317.5269 371.2942 319.582 369.1459 323.6439 367.8699 326.4443 364.2854 329.1278 364.5868 330.2954 365.8288 334.2216 361.0456 337.6363 358.9753 342.7467 363.7497 344.4722 363.9521 346.6735 367.4332 339.4965 366.4388 336.5951 375.5888 335.3105 377.0898 336.085 381.1729 333.2292 385.0297 330.9071 385.0659 Z"/>
<path d="M 330.9071 385.0659 333.2292 385.0297 336.085 381.1729 335.3105 377.0898 336.5951 375.5888 339.4965 366.4388 346.6735 367.4332 344.4722 363.9521 342.7467 363.7497 337.6363 358.9753 334.2216 361.0456 330.2954 365.8288 329.1278 364.5868 328.6004 360.1113 326.5035 351.7179 322.514 349.9729 322.5942 344.0149 324.9949 339.1495 326.8953 337.2956 333.0403 337.5429 337.7452 340.0578 347.4565 342.9462 354.5556 350.346 356.2735 354.7137 354.9083 356.7831 351.6051 357.8673 349.3396 360.3521 350.8189 367.3568 353.2514 371.4023 351.3367 374.0697 354.2772 379.9928 352.6242 383.4001 355.3138 384.7979 354.4655 388.0975 357.4207 390.7338 354.9352 396.9693 356.4938 401.6672 353.283 404.6047 349.2904 404.4546 345.9854 402.9351 346.1333 400.0423 343.268 396.8637 343.0894 392.8473 340.6921 390.3828 332.9424 387.2597 330.9071 385.0659 Z"/>
<g>
<path d="M 85.75 319.2262 87.4472 321.9929 89.2314 327.8427 90.2861 334.1524 87.9166 336.4471 90.3976 341.2625 93.7744 338.557 96.4921 344.3408 104.0491 355.4841 102.4614 360.0702 98.0295 360.1939 87.9648 354.3821 83.6078 356.698 78.6067 353.7667 77.949 350.2511 79.6865 347.3089 77.0295 341.5827 75.2236 342.9158 75.1251 349.6299 70.4681 350.5592 67.3149 347.5383 70.6974 339.5091 72.6831 331.451 79.6038 335.0437 84.0933 330.6471 83.5181 323.5674 84.0366 319.2943 85.75 319.2262 Z"/>
<path d="M 92.4676 316.7488 94.6672 321.6043 96.6703 323.6203 93.9611 330.1697 99.6393 331.5716 98.9508 336.04 95.6074 335.5778 93.332 330.5996 91.4931 323.5184 89.7523 320.335 92.7223 319.2215 92.4676 316.7488 Z"/>
</g>
<path d="M 491.9757 44.7115 493.399 47.5441 491.2136 55.758 493.3172 61.3244 495.7607 64.1452 490.5309 64.4908 488.8334 71.4327 485.9663 72.718 486.2642 75.2744 478.4938 77.5144 476.0575 80.3883 473.2413 78.2791 471.2485 79.2576 472.4403 88.7143 467.0509 89.3889 459.0847 85.5392 453.5129 84.4647 452.1314 82.0148 448.6525 81.1052 445.3161 82.4903 438.2376 81.7323 434.7574 80.2663 436.8392 75.8243 434.0069 71.415 433.1984 68.3679 429.3896 65.2784 428.635 61.091 432.3348 58.1757 433.9339 55.4212 433.4919 51.9746 437.0627 53.2298 441.404 49.8146 442.6258 51.766 446.235 52.581 449.8265 51.9817 460.0248 47.2038 464.2339 47.8968 465.1631 44.9337 467.3309 44.0497 471.0227 45.4614 473.3089 44.4166 476.1743 45.6091 485.308 41.8371 487.4242 41.9397 490.0815 45.0168 491.9757 44.7115 Z"/>
<g>
<path d="M 282.3883 364.48 282.1205 371.9481 286.531 373.5362 287.0686 375.2261 283.9253 378.1413 277.5594 378.9921 273.6392 378.319 270.1097 374.989 271.3699 372.5961 266.336 368.5899 264.3108 365.599 269.7418 362.4945 277.669 365.267 282.3883 364.48 Z"/>
<path d="M 282.3368 396.9303 278.2503 396.9203 276.5294 399.6078 271.7824 398.0856 266.4474 394.261 262.847 395.8372 256.1819 396.1963 253.2023 394.1203 252.9648 391.9399 243.1313 391.8347 239.9044 390.2812 236.7487 391.3481 237.8915 386.9072 234.2131 383.8743 231.4974 385.4306 228.4772 388.9247 225.6845 388.913 221.2737 389.4409 217.8729 385.4403 215.8255 385.2524 212.8911 380.2235 214.6318 377.561 214.369 373.892 216.6935 373.9137 220.7263 370.9753 223.8099 367.382 225.117 359.7974 224.8021 355.6783 228.1267 356.9108 233.8519 356.4582 238.2102 359.6414 245.2533 362.3088 252.0999 366.7296 257.0299 372.9638 261.3262 375.8253 265.2179 376.9223 270.0204 375.0969 273.8525 378.5736 272.4515 382.2219 273.4315 385.204 282.7373 385.8542 286.9213 389.8396 286.9575 392.2942 282.0684 394.4098 282.3368 396.9303 Z"/>
</g>
<g>
<path d="M 357.553 677.7984 360.6514 678.495 359.891 681.4422 356.6772 681.9999 354.3943 679.4143 357.553 677.7984 Z"/>
<path d="M 376.3363 630.2807 377.1529 636.8548 372.5517 640.4601 375.1143 641.9187 373.9579 647.6828 369.3584 647.0539 367.0322 645.2959 352.57 645.4395 349.1185 642.2526 344.4079 643.1193 336.9874 640.5664 331.3979 641.5507 317.3838 641.9257 317.0718 639.4015 312.0965 636.6018 313.1349 627.444 316.3354 621.3653 315.0304 619.2718 317.0733 617.2312 316.1367 614.8842 317.3814 608.5367 319.7816 609.5353 319.7827 613.9253 323.1725 616.0239 328.5866 614.6276 329.1386 611.3602 327.5029 605.4208 327.5625 600.2765 330.2439 597.2758 332.6002 599.2007 331.7886 601.425 333.0013 606.0453 333.0597 611.2948 338.1827 613.2385 350.2354 614.7903 354.6462 613.6374 356.4623 607.6064 359.6219 606.0677 364.8302 607.3552 366.99 612.1229 365.3845 615.5949 363.4532 616.3852 357.1042 615.0734 355.7261 616.5683 360.7037 618.8268 362.7828 618.5717 367.1316 620.7996 370.2235 618.4537 371.4747 620.2734 372.1202 629.5388 376.3363 630.2807 Z"/>
</g>
<g>
<path d="M 529.29 232.8423 530.3684 236.3156 535.5962 237.8641 532.0727 242.9234 537.9066 246.8155 541.701 252.3642 544.2338 254.0931 546.1991 260.2775 549.3655 263.207 550.8522 268.1354 545.0267 268.6227 543.0235 264.4099 544.1104 261.8362 541.0927 258.422 537.4622 260.0266 544.4092 267.726 545.5038 271.1634 536.1421 273.8886 528.9287 272.5793 525.8444 270.3326 519.3749 268.7415 516.7045 269.4214 512.9719 264.7337 514.0264 262.2302 518.0215 258.3016 524.9459 255.3653 526.1048 252.5866 522.7714 250.3497 518.8438 250.3672 516.045 251.6983 515.5461 254.721 508.965 262.2794 503.2222 260.3687 500.173 260.7293 498.4042 257.943 494.0696 256.4646 491.8952 249.2397 494.2927 243.9344 503.4853 243.488 512.8245 240.6477 516.8827 238.0853 517.07 233.4775 520.2694 232.9604 527.4139 233.624 529.29 232.8423 Z"/>
<path d="M 430.3418 219.6597 428.7088 223.6783 425.7936 226.926 424.5966 222.2807 426.884 217.0405 430.3418 219.6597 Z"/>
<path d="M 459.4546 172.6754 459.8962 175.1099 456.0721 178.751 452.2536 186.3276 452.8577 190.103 454.8351 192.2909 452.5043 195.0719 449.5281 194.0668 446.8385 190.4796 446.195 187.5545 447.4872 183.9523 445.7299 182.4973 442.8156 184.0186 440.1006 188.7408 443.8293 193.6186 438.5656 193.6672 438.7451 189.1139 432.2087 189.5709 430.4792 187.3229 431.9029 182.3621 430.0084 180.4403 429.8647 175.5943 437.8227 175.0038 443.4286 173.4498 446.683 175.147 448.1095 178.5424 457.834 171.4883 459.4546 172.6754 Z"/>
</g>
<path d="M 215.8255 385.2524 217.8729 385.4403 221.2737 389.4409 225.6845 388.913 226.7633 392.3466 226.0874 398.0924 226.7828 401.5059 229.8842 399.2436 231.9207 401.3676 232.2644 405.4064 233.8943 409.2078 236.6704 412.6829 234.8867 416.7865 236.7969 420.1026 239.4467 420.0694 241.1358 423.6807 249.067 421.8544 250.0659 418.2822 252.0076 416.9099 251.3922 419.6844 254.2226 426.4968 253.2577 429.2354 258.1468 435.141 261.0571 443.3178 264.9073 449.0113 263.8851 454.3193 264.4493 456.9016 269.0215 457.0349 270.8446 463.689 268.7613 466.0442 262.5122 466.1284 260.9539 468.419 256.6565 466.6705 253.4672 462.6683 249.1757 464.4422 247.3964 461.44 249.2339 458.939 243.6943 451.4524 243.4216 447.9065 241.7232 445.4586 241.5086 438.9001 237.3887 439.9887 235.4902 436.8111 231.9379 437.164 226.799 434.9364 225.6473 436.1408 227.6874 441.6955 227.0845 446.5728 222.8225 446.9198 217.3276 443.2115 216.8278 440.004 211.3747 441.2161 213.6448 450.9558 208.2438 453.9598 207.5144 451.1553 204.6412 449.8013 202.2417 444.9235 195.616 439.3386 195.641 435.1282 190.8404 430.4661 193.8862 426.3406 191.8411 419.7163 194.2066 417.4875 189.2508 413.24 185.3093 407.6761 178.5521 407.0274 180.3344 399.4208 179.1562 394.2659 179.1256 389.4951 180.5481 386.4337 186.7789 382.0622 187.681 385.3561 191.2162 386.4496 193.9388 388.7083 199.2056 390.6367 203.1643 386.738 208.7583 389.6426 210.6234 386.41 215.8255 385.2524 Z"/>
<path d="M 164.414 120.3586 164.8841 121.7363 161.2637 125.7672 160.3688 131.6015 156.6493 133.6116 152.5504 133.4534 151.5906 131.1754 146.6573 135.9957 143.7469 132.3714 142.1621 133.8865 142.4055 137.5329 136.286 136.5685 132.2931 138.2375 130.962 140.5544 130.3315 147.0317 131.5689 148.9928 130.3283 152.9566 128.5775 156.3581 125.2797 155.6125 124.5307 150.428 119.3923 141.3314 116.2306 137.6797 108.8447 135.8944 109.993 134.5318 110.6228 127.6218 113.0325 126.2065 114.4064 123.2823 119.1234 123.8419 120.6774 125.1864 123.695 122.7873 123.885 119.5926 127.4699 116.2804 129.5068 115.9851 130.6747 110.3797 134.5657 111.2523 138.3517 108.0868 141.0114 107.4936 145.2847 97.5847 151.1308 103.2629 153.8023 104.1699 155.7043 107.4291 155.1645 112.6021 159.8896 112.4474 160.5013 115.0932 163.0859 116.87 164.414 120.3586 Z"/>
<path d="M 94.6034 372.871 94.8031 375.3276 97.1279 379.6108 99.7151 381.9854 103.4395 382.2459 109.9821 385.9242 109.5618 388.7436 112.6279 390.3533 114.2085 394.4614 108.6095 392.8405 104.6706 396.2025 106.0173 399.81 101.8001 400.4328 97.3072 394.2962 94.6669 393.2413 88.3935 383.8535 88.3894 379.3649 90.125 375.8323 94.6034 372.871 Z"/>
<path d="M 408.7999 40.8099 405.2528 42.9412 403.1427 41.053 401.654 44.5695 398.2451 46.1492 395.372 45.975 395.1327 50.2004 393.255 52.0833 388.5466 50.6141 388.7395 54.0519 387.4796 56.8356 387.6769 61.6285 379.7676 67.4963 375.7472 71.057 373.2942 70.143 370.7124 73.4013 370.8788 75.9507 368.9641 78.2747 359.5904 75.8367 353.5656 71.5989 352.7806 67.9454 349.5538 65.3332 346.725 68.1823 343.826 65.7655 336.0963 62.4285 332.2491 57.4844 330.1738 57.5012 328.4719 52.0011 330.186 48.0294 329.0401 45.6161 323.6871 44.7136 323.076 39.4442 326.736 36.0975 333.7594 37.503 336.1678 33.5251 343.9003 31.6016 344.7322 29.5472 348.7233 33.4676 351.4731 31.5335 354.3292 32.0409 356.2874 30.2756 355.2318 25.2316 358.2924 22.3375 361.8845 23.5353 364.2104 25.8628 366.8589 22.44 370.1116 20.0312 373.1771 23.5132 378.0614 25.328 379.1396 23.682 384.9324 24.2513 386.429 21.572 389.5773 20.4732 392.4038 25.9989 393.1307 29.7496 394.8224 30.5602 395.7796 34.402 398.7424 33.6665 404.7752 35.4398 406.2307 38.8944 408.7999 40.8099 Z"/>
<g>
<path d="M 498.2315 530.7369 491.209 531.962 487.8244 529.6577 492.06 527.291 498.2315 530.7369 Z"/>
<path d="M 463.7765 520.4208 468.7158 526.1717 468.0053 530.9438 465.3537 533.4422 462.9523 530.5829 464.5412 527.629 463.7765 520.4208 Z"/>
<path d="M 418.6814 501.434 426.0184 505.6295 422.8087 507.7522 421.4269 504.6665 418.868 504.684 418.6814 501.434 Z"/>
<path d="M 442.8515 495.987 443.786 497.8267 438.9764 502.4352 434.5338 504.002 437.2048 498.5129 442.8515 495.987 Z"/>
<path d="M 384.7423 491.5847 386.9236 493.8576 390.8176 492.6066 394.0466 497.5152 393.4951 499.7246 389.8579 501.6902 385.909 501.1198 383.4086 502.5505 376.9594 502.9106 377.6707 496.0243 378.7905 493.239 381.6475 496.8373 384.7423 491.5847 Z"/>
<path d="M 399.9774 489.4043 403.1982 491.1017 401.6654 493.8365 399.2803 492.465 399.9774 489.4043 Z"/>
<path d="M 454.128 488.6396 460.3185 496.6659 460.6067 501.2522 457.4087 502.5391 455.6889 499.643 449.8056 494.6709 451.125 489.1565 454.128 488.6396 Z"/>
<path d="M 395.3504 484.2508 397.7458 486.0796 395.9907 490.611 393.561 491.098 391.9003 488.3863 392.4819 486.1513 395.3504 484.2508 Z"/>
<path d="M 508.9529 473.481 510.3286 477.2415 506.1788 479.2316 501.5634 483.6179 497.8364 488.3084 494.9183 488.4138 493.0391 490.3111 488.7101 489.0019 491.3217 485.822 496.9418 485.3364 496.3458 481.926 501.279 480.4117 506.5498 476.8482 505.9552 474.4687 508.9529 473.481 Z"/>
<path d="M 401.096 464.5986 405.6474 466.045 411.0204 473.5497 405.8439 478.104 402.4838 470.3823 401.096 464.5986 Z"/>
<path d="M 435.9693 463.5727 435.2162 470.0492 431.4789 470.8607 431.0498 467.6898 435.9693 463.5727 Z"/>
<path d="M 447.2939 453.3792 449.6864 456.0069 450.5664 463.8114 449.2345 466.5095 443.692 470.6832 438.7971 469.0799 437.2653 466.6884 437.8145 462.1321 441.6807 459.3719 440.6671 457.549 447.2939 453.3792 Z"/>
<path d="M 389.5966 448.3231 392.4038 449.4917 391.5783 456.2627 385.3444 456.0026 384.4309 452.0416 386.8245 449.0405 389.5966 448.3231 Z"/>
<path d="M 471.225 447.9164 475.8215 454.3665 474.9202 465.4781 473.1693 471.2466 468.8656 472.6202 464.8035 476.0896 462.805 471.0812 459.9238 470.0974 459.1637 464.1216 456.0856 459.4598 461.8368 454.7181 464.7255 454.1314 468.0394 449.4291 471.225 447.9164 Z"/>
<path d="M 385.0972 421.5416 384.6774 425.3743 387.3188 426.7525 386.0463 433.4006 382.9272 437.5467 379.57 437.2013 381.9539 432.3253 381.2668 428.5561 379.3481 427.4998 382.1278 423.3624 385.0972 421.5416 Z"/>
<path d="M 456.03 419.0374 457.0887 420.5929 460.6599 419.556 464.735 424.3932 462.0736 424.6063 457.9054 428.0482 453.8598 425.4892 454.6862 422.7207 453.3953 419.8176 456.03 419.0374 Z"/>
<path d="M 420.0775 418.1653 424.8134 420.7977 425.3559 426.1372 426.9325 429.1247 421.6872 431.868 417.8839 428.181 420.9447 425.0243 421.1503 420.031 420.0775 418.1653 Z"/>
<path d="M 430.6983 401.8765 433.4827 404.876 438.2341 404.3771 439.8899 405.8513 443.5549 405.5301 447.3271 408.326 448.6188 410.9261 446.7672 415.7632 443.765 416.7761 433.2612 409.781 426.9178 403.934 430.6983 401.8765 Z"/>
<path d="M 378.189 401.4339 381.3666 402.6356 382.8547 404.7839 378.7033 412.4578 374.2382 417.0446 371.8271 408.9527 373.827 404.1214 378.189 401.4339 Z"/>
<path d="M 362.4562 396.1362 360.8684 401.935 358.9761 402.1557 360.8523 396.1141 362.4562 396.1362 Z"/>
<path d="M 412.3327 370.7025 411.7511 372.1348 415.4157 374.928 416.8084 378.9976 421.5787 380.1443 424.0807 379.7191 425.2396 383.0186 423.5352 385.6715 427.0766 388.7704 424.9011 392.3327 428.477 394.0294 426.3806 398.2483 423.3093 400.1595 419.9783 393.9174 416.8863 392.36 410.4412 382.711 406.2223 382.4587 404.015 375.4531 404.6318 373.9252 409.4575 371.0277 412.3327 370.7025 Z"/>
</g>
<g>
<path d="M 116.3731 302.6906 114.0428 306.3492 112.4841 303.3125 116.3731 302.6906 Z"/>
<path d="M 103.3582 299.8057 104.9999 302.3118 101.042 304.9441 99.5933 303.475 103.3582 299.8057 Z"/>
<path d="M 97.401 282.7597 99.0581 287.9489 99.4483 295.3299 98.0026 300.9708 98.8099 304.2816 95.6128 306.7557 91.4199 307.8014 88.7186 303.9289 85.6265 305.9937 85.9364 299.0249 87.3781 296.6055 89.7784 289.3177 93.4614 284.378 97.401 282.7597 Z"/>
</g>
<path d="M 302.8795 319.0242 299.5645 321.7441 296.7866 322.8627 294.4635 328.2616 298.2828 327.2096 304.7054 324.237 309.0087 326.9303 307.8166 330.0163 312.8416 333.8328 319.0201 334.6355 324.2105 336.1172 326.8953 337.2956 324.9949 339.1495 322.5942 344.0149 322.514 349.9729 322.0502 353.8633 316.5532 357.0916 309.1099 354.4998 308.8479 350.8525 302.5109 349.7117 304.1122 344.4733 297.9408 344.9043 295.8044 347.544 295.4416 352.5223 287.3954 352.7645 283.1844 353.9193 281.973 350.0914 278.8258 353.6905 275.146 349.3647 269.9231 349.5389 269.3457 352.3079 265.9309 350.7871 262.9679 347.351 260.5724 348.17 256.35 347.2542 255.23 345.6847 256.92 342.4688 251.6037 340.1281 248.7676 337.0766 249.574 335.2423 247.1835 332.1431 245.4923 335.736 243.319 334.7183 243.6767 329.5018 238.0802 325.1442 235.0187 312.8397 241.5813 315.0284 245.7594 319.7727 252.0951 316.4233 256.0617 312.5197 263.0614 312.3681 264.3193 316.2399 270.2332 314.8949 274.4476 317.2989 278.1116 316.9741 278.8377 313.5796 283.4136 313.0063 285.4367 315.9301 289.9952 318.3155 290.2528 320.7588 293.0318 321.4046 299.5992 318.9913 302.8795 319.0242 Z"/>
<path d="M 475.9023 664.822 475.5831 662.0557 472.9662 657.4506 467.2319 653.1485 465.2554 652.7911 463.5327 647.425 464.5387 643.9978 468.9025 643.4307 471.886 637.1538 470.6303 634.7778 475.0524 632.4201 484.2238 629.6778 489.7292 630.3198 489.6005 634.0504 491.6797 638.2042 489.0039 643.2919 488.5759 647.3321 490.3229 651.2194 496.8631 652.8415 499.2802 648.7741 503.746 645.5582 508.0633 645.3408 511.6158 643.7865 513.7324 640.7927 524.4672 643.686 529.7504 638.427 532.8413 636.6378 534.3159 643.7538 534.6214 651.4829 533.8747 654.1001 527.1798 661.6101 521.1028 663.5525 519.1047 661.3317 512.5971 661.3743 510.132 659.5109 499.7012 662.0152 497.1071 663.6048 490.9308 663.3392 486.8283 662.3569 484.7986 663.3226 479.3417 663.2386 475.9023 664.822 Z"/>
<path d="M 425.301 624.7187 424.8956 628.16 421.8582 627.8997 425.1373 635.5472 425.1207 640.1797 422.0326 647.2323 417.914 647.0113 414.5491 648.0444 414.6105 652.1282 410.2469 653.31 409.0378 655.6249 395.9764 654.7114 392.7255 650.7421 387.646 650.2046 381.4449 645.7737 376.9238 646.2961 373.9579 647.6828 375.1143 641.9187 372.5517 640.4601 377.1529 636.8548 376.3363 630.2807 384.892 628.8336 390.2453 628.8219 397.6065 627.2935 402.871 623.5803 406.91 622.8683 413.2585 623.4869 414.0361 624.8681 425.301 624.7187 Z"/>
<g>
<path d="M 321.5267 253.3032 329.6005 259.7636 334.975 260.7973 332.767 264.0721 329.7114 265.6894 325.0115 264.0832 323.6538 259.0894 322.2587 258.3199 321.5267 253.3032 Z"/>
<path d="M 310.279 252.2276 313.0658 253.667 310.8333 256.7708 306.8855 259.0878 304.0358 256.8614 308.3835 254.6898 310.279 252.2276 Z"/>
<path d="M 347.3283 244.4146 349.5548 246.3395 345.227 253.3339 344.6528 255.4986 339.4891 259.8062 337.6977 257.8638 341.6289 255.1708 341.255 252.6258 344.2716 249.692 347.3283 244.4146 Z"/>
<path d="M 356.3673 236.5417 358.3614 238.4478 358.0644 242.0473 356.1911 243.8716 354.171 239.6084 356.3673 236.5417 Z"/>
<path d="M 275.6346 272.0014 268.9426 275.1513 263.2695 272.1746 255.5159 271.8718 251.8555 270.1215 248.5942 266.5357 241.1941 268.2307 236.8084 266.9525 236.0581 261.2897 236.6554 258.857 240.5071 255.8908 240.9744 252.3624 239.0681 246.3054 247.8945 242.7797 248.4479 237.1509 246.3659 236.4809 244.7773 232.7297 248.8719 230.6824 253.576 230.6387 252.7434 227.3503 256.0247 224.0522 256.6773 220.2984 259.9117 219.8948 268.5368 213.0344 269.9499 215.7954 275.2893 218.3249 282.0823 223.3353 284.1299 227.8957 286.4436 230.236 292.3864 238.8831 295.6203 241.768 296.9717 246.6838 298.7362 248.4243 301.2836 254.1445 297.474 258.7218 290.6219 259.9624 288.7863 262.1158 284.2732 263.7516 280.083 263.9637 278.2438 262.4278 279.7288 258.5808 287.5995 260.1467 290.02 258.4208 291.4186 255.2048 289.0506 251.8064 287.1106 245.6716 283.7452 242.3761 276.0976 241.2093 274.0649 237.7768 270.3595 238.3947 269.0164 240.4579 270.5119 242.8358 260.9223 244.9136 260.386 248.6851 263.0241 257.0227 267.7833 256.7774 268.0033 260.3266 271.6751 260.5145 273.9739 265.3175 274.0232 270.6515 275.6346 272.0014 Z"/>
</g>
<path d="M 282.3368 396.9303 286.3319 399.7026 284.7287 402.6648 285.9881 404.5079 285.11 407.8126 288.4371 410.0307 285.5693 415.1412 286.5065 417.0363 289.851 417.3697 299.5185 423.3052 308.1866 423.3149 305.7992 428.2833 304.5401 429.0628 299.2441 427.9587 296.8083 430.0544 292.933 429.3247 290.8855 430.9163 292.1191 433.9649 286.8932 435.8278 288.2041 439.507 284.033 439.4928 281.1037 434.0469 278.3697 431.5618 281.2534 429.4089 282.9104 425.421 279.8092 423.7781 277.0671 424.2155 275.9468 421.217 272.9743 422.2263 271.2109 418.0409 264.5022 416.0913 261.4677 417.9567 258.4002 416.0056 257.2566 411.9337 255.5423 410.3443 251.3176 412.002 252.0076 416.9099 250.0659 418.2822 249.067 421.8544 241.1358 423.6807 239.4467 420.0694 236.7969 420.1026 234.8867 416.7865 236.6704 412.6829 233.8943 409.2078 232.2644 405.4064 231.9207 401.3676 229.8842 399.2436 226.7828 401.5059 226.0874 398.0924 226.7633 392.3466 225.6845 388.913 228.4772 388.9247 231.4974 385.4306 234.2131 383.8743 237.8915 386.9072 236.7487 391.3481 239.9044 390.2812 243.1313 391.8347 252.9648 391.9399 253.2023 394.1203 256.1819 396.1963 262.847 395.8372 266.4474 394.261 271.7824 398.0856 276.5294 399.6078 278.2503 396.9203 282.3368 396.9303 Z"/>
<g>
<path d="M 399.6527 96.0125 405.8631 100.0778 408.4486 100.933 407.5615 104.6782 408.5957 112.6753 406.1328 115.4398 400.7275 117.2376 397.2717 117.1199 395.9654 114.3377 389.1956 112.0307 389.021 109.464 390.6833 104.4459 395.6245 98.0821 399.6527 96.0125 Z"/>
<path d="M 411.4886 90.1308 410.6765 91.1974 400.1004 88.7061 397.7067 90.0846 391.8206 80.8481 388.8679 80.3784 380.1556 82.8874 378.7347 85.4377 375.7992 86.8277 373.6571 91.8797 373.8891 94.2973 364.7276 99.4806 361.6384 101.966 354.361 103.9953 344.9869 100.6484 341.0345 98.0755 340.4817 96.1823 345.8093 94.1385 350.0307 91.0826 359.3201 80.6287 359.5904 75.8367 368.9641 78.2747 370.8788 75.9507 370.7124 73.4013 373.2942 70.143 375.7472 71.057 379.7676 67.4963 387.6769 61.6285 387.4796 56.8356 391.1186 56.36 393.5441 57.7089 397.4809 56.3582 402.1963 56.2813 402.3595 64.5863 407.955 67.2417 405.2957 74.3162 407.1385 80.2901 410.0804 85.3456 411.4886 90.1308 Z"/>
</g>
<path d="M 186.7789 382.0622 180.5481 386.4337 179.1256 389.4951 179.1562 394.2659 180.3344 399.4208 178.5521 407.0274 185.3093 407.6761 189.2508 413.24 194.2066 417.4875 191.8411 419.7163 187.7314 420.9262 185.3154 423.6197 186.6539 427.3273 182.4218 428.5247 171.6393 427.8352 169.3261 429.5784 164.5797 418.8767 158.4654 410.8588 146.5043 401.5488 140.5382 400.344 141.9444 396.9449 140.9031 391.6785 136.8606 387.323 133.8413 385.6104 126.0557 382.7757 125.8727 379.5229 127.6537 373.9169 130.9677 374.6344 133.7871 373.4386 138.5924 369.1602 141.5717 365.3219 145.5164 357.8192 146.246 360.3309 153.0421 365.7784 153.6525 372.4175 156.3397 375.9937 161.2277 376.7919 167.1897 378.8812 169.0173 383.2155 179.7041 374.7053 182.3177 375.3926 186.7789 382.0622 Z"/>
<path d="M 212.4155 217.2146 213.1215 221.5748 215.4031 221.5147 217.4241 223.8113 215.6598 226.2732 218.6169 234.499 215.7546 235.3353 214.6724 238.7549 215.5466 242.8822 218.0068 244.6754 212.0903 254.2683 209.4362 256.1927 210.7952 258.9397 206.8402 261.5558 201.1333 263.6654 201.7561 266.1233 198.3272 268.0707 193.8306 268.0875 193.2647 264.4716 192.6961 260.8972 187.0751 255.7587 184.0764 258.2904 177.3413 259.2835 176.9606 255.7538 175.1287 252.4742 174.3417 245.7109 167.1242 246.347 163.0933 248.9109 160.7151 246.9494 154.2649 252.4968 152.0283 253.6787 150.2733 252.6205 148.8599 248.4526 154.6504 242.0349 153.4936 237.6535 151.4062 234.7757 152.9551 230.5759 155.6271 229.1315 161.6567 233.1695 165.0846 230.225 168.1414 225.5311 169.7282 227.7666 176.1057 226.6405 178.3622 224.1446 183.5884 225.2575 186.744 220.3748 191.5086 222.3359 198.8041 216.3934 202.6696 218.8248 206.4639 216.5777 209.8016 217.817 212.4155 217.2146 Z"/>
<g>
<path d="M 104.4183 263.7052 104.0364 258.1225 105.409 259.4183 104.4183 263.7052 Z"/>
<path d="M 136.6278 220.0721 139.5872 226.0937 142.5032 228.305 143.2316 232.5781 145.6605 234.5167 151.4062 234.7757 153.4936 237.6535 154.6504 242.0349 148.8599 248.4526 150.2733 252.6205 142.2833 258.0221 135.6993 256.1255 130.783 257.329 128.1103 261.2101 129.6409 264.5784 127.9378 263.7688 123.2904 268.1427 120.1253 267.3861 118.8267 265.3171 113.0851 261.7206 110.9881 263.2283 109.3152 259.4683 106.4771 256.9051 108.9257 255.6685 114.2725 249.9107 111.2053 244.1874 114.4081 243.1996 118.7459 240.0009 121.4903 235.2013 120.1257 233.5456 121.8736 230.2692 124.1381 228.5613 124.3216 225.6765 126.3266 220.8668 131.8926 220.217 134.5378 217.2946 136.6278 220.0721 Z"/>
</g>
<path d="M 351.2032 143.6978 351.649 136.3519 353.4379 135.4644 355.8498 138.4797 362.4501 139.2929 366.5128 143.5528 369.4946 144.275 372.3541 150.3303 379.0896 155.6377 380.9666 160.7426 374.4331 163.3265 371.9563 158.6856 367.2977 154.6715 362.9893 147.0286 353.8074 145.7681 351.2032 143.6978 Z"/>
<path d="M 333.3341 100.2007 330.8585 101.0605 328.5484 105.3787 328.0304 108.9588 331.5161 110.1836 332.6231 112.3039 324.4749 112.702 324.0683 115.1197 316.7719 116.3599 314.0474 118.7122 311.7273 117.3129 306.9992 116.7842 306.2907 120.1221 303.6407 121.708 299.0892 121.8043 299.6074 125.4375 296.8633 126.4541 294.1327 124.9027 287.751 127.4017 288.0071 131.727 284.9865 137.3888 281.1284 132.9345 277.9551 135.7765 278.7843 138.4134 276.1217 139.7862 272.22 136.9835 269.1945 136.7519 265.1632 128.4457 262.4881 127.3186 262.1918 124.7201 268.0238 124.7153 273.3619 122.2799 274.5533 119.9551 271.3206 116.6127 272.4564 113.1918 268.2071 110.8466 265.7255 112.4532 265.2904 115.7288 260.4046 118.7577 256.8229 118.9354 256.7732 122.4046 253.1869 123.0353 252.0432 121.3599 248.788 118.2622 247.6885 113.5674 242.332 107.4945 238.8286 107.1294 238.1893 103.8296 240.0061 101.99 243.5269 102.4576 240.5412 94.7803 247.7696 93.6285 249.4535 91.3142 252.7571 89.4243 253.5375 95.5679 256.4244 96.062 258.4544 93.8026 262.5931 93.2041 264.9373 94.4841 271.9562 93.3208 274.8744 88.7533 276.4654 88.7029 277.9314 82.0634 283.6183 80.146 288.1603 80.5748 289.9859 77.7902 294.358 75.6024 297.4095 81.487 300.4316 81.5153 302.9491 84.9089 303.764 90.2676 308.7926 89.7478 309.8291 93.198 312.2732 91.7907 315.6546 92.8055 316.3264 95.0985 319.7808 97.3191 331.2022 97.9043 333.3341 100.2007 Z"/>
<path d="M 441.404 49.8146 437.0627 53.2298 433.4919 51.9746 433.9339 55.4212 432.3348 58.1757 428.635 61.091 429.3896 65.2784 433.1984 68.3679 434.0069 71.415 436.8392 75.8243 430.3158 75.5635 425.2481 79.7704 424.3153 82.3357 416.3557 85.0053 411.4886 90.1308 410.0804 85.3456 407.1385 80.2901 405.2957 74.3162 407.955 67.2417 402.3595 64.5863 402.1963 56.2813 397.4809 56.3582 393.5441 57.7089 391.1186 56.36 387.4796 56.8356 388.7395 54.0519 388.5466 50.6141 393.255 52.0833 395.1327 50.2004 395.372 45.975 398.2451 46.1492 401.654 44.5695 403.1427 41.053 405.2528 42.9412 408.7999 40.8099 411.2079 41.3598 411.3662 36.8091 414.8097 37.7302 417.3574 36.1028 423.0744 39.1401 429.4891 40.6491 430.9032 42.7582 438.2581 45.6656 441.404 49.8146 Z"/>
<g>
<path d="M 591.9038 619.0113 590.9204 622.1143 584.2714 625.8846 582.7091 627.5218 579.2326 626.3243 583.8048 620.1819 586.2967 620.5206 591.9038 619.0113 Z"/>
<path d="M 607.6935 579.3912 609.0289 582.154 607.2994 585.643 608.0595 589.4126 603.8089 596.7268 603.1868 601.1508 605.2273 602.0442 608.7681 607.4932 610.1924 611.0471 604.0603 617.6619 599.9652 618.6039 598.5795 616.9305 601.0492 613.2573 599.8225 610.9231 600.2961 607.4289 597.0067 604.8292 596.2711 601.763 600.4083 598.0804 600.8971 593.6214 603.7159 589.66 603.7228 582.616 607.6935 579.3912 Z"/>
<path d="M 608.4462 571.9909 609.5314 577.0666 606.4264 578.2245 608.4462 571.9909 Z"/>
<path d="M 636.7337 537.3812 637.36 540.2187 630.6133 540.5046 630.4766 538.3855 636.7337 537.3812 Z"/>
<path d="M 616.1941 515.3016 623.2349 523.6297 620.9277 524.7851 617.1273 522.2293 611.823 520.7775 612.244 517.882 616.1941 515.3016 Z"/>
<path d="M 685.9349 515.9963 687.123 521.9574 684.9082 524.7646 685.372 527.5095 683.6447 529.3874 680.3214 537.8856 679.691 541.7091 677.1764 542.1546 675.0316 546.004 674.4516 549.231 676.5032 551.8397 670.36 552.9925 665.2019 556.4786 659.2416 567.1701 652.5431 572.0642 648.6905 569.4381 647.3177 567.029 649.9963 559.8087 649.8026 551.3493 646.8184 550.1629 643.8833 545.9612 650.1827 542.73 651.9344 539.3118 653.0909 534.4113 656.3791 532.8326 658.6407 529.06 664.9354 525.8183 672.21 521.1032 677.6557 518.7175 683.4254 517.7808 685.9349 515.9963 Z"/>
<path d="M 603.0122 502.0776 604.8927 505.9056 603.4636 508.0014 598.2564 506.3133 598.0882 503.2492 603.0122 502.0776 Z"/>
<path d="M 539.0898 501.4115 545.5107 505.7275 538.4373 508.322 535.092 514.9851 531.7024 512.8141 529.9426 507.954 532.0721 506.0102 537.2585 508.706 540.3016 505.1156 539.0898 501.4115 Z"/>
<path d="M 652.908 498.9973 657.4589 500.1712 656.6803 507.4835 652.3768 503.0618 649.3054 501.7632 652.908 498.9973 Z"/>
<path d="M 609.8831 474.7002 615.2236 477.8594 612.8759 479.4022 605.6524 481.5279 600.5867 483.7206 596.3395 488.5708 592.2994 487.7815 585.7275 489.8397 586.4199 492.9367 583.2824 496.0844 581.1389 492.8831 581.4148 488.7511 586.7086 487.7505 593.1916 479.5879 600.7422 475.399 605.6149 474.8669 608.8272 472.7256 609.8831 474.7002 Z"/>
<path d="M 578.4512 458.0466 584.5848 459.9423 586.0701 462.8867 589.6332 463.6579 590.4938 467.8796 586.0362 472.3252 583.2391 472.3468 579.8504 469.8891 582.0229 465.0443 582.4591 461.2723 578.4512 458.0466 Z"/>
<path d="M 571.4028 446.4386 575.0885 448.0169 575.3071 451.2641 577.5986 455.4155 574.1375 455.7814 571.9093 454.0568 570.2873 449.6258 571.4028 446.4386 Z"/>
<path d="M 552.0572 429.0526 552.3648 431.7708 549.1575 437.0641 549.0707 430.6049 552.0572 429.0526 Z"/>
</g>
<path d="M 267.8475 42.4718 268.7636 50.5461 267.0356 52.5474 268.6073 56.6172 271.6902 56.916 275.1451 55.0508 279.7864 59.1233 280.7849 61.2272 285.2647 62.6663 287.1743 64.5023 290.1449 64.459 291.8932 66.9209 290.3529 71.7235 293.4752 71.4521 294.358 75.6024 289.9859 77.7902 288.1603 80.5748 283.6183 80.146 277.9314 82.0634 276.4654 88.7029 274.8744 88.7533 271.9562 93.3208 264.9373 94.4841 262.5931 93.2041 258.4544 93.8026 256.4244 96.062 253.5375 95.5679 252.7571 89.4243 249.4535 91.3142 248.3593 91.4963 237.8269 87.1471 234.0231 89.2625 228.8448 83.979 228.2015 80.2238 224.1171 78.2066 221.1886 78.6583 220.9657 74.0669 224.964 73.6249 226.7176 70.4364 226.9736 63.3781 229.7627 61.8062 233.2772 63.6289 236.8302 63.9215 248.3455 62.4285 251.944 57.404 254.8352 61.655 257.8792 59.7757 259.9201 43.796 262.2114 42.5921 267.8475 42.4718 Z"/>
<path d="M 213.6448 450.9558 215.6912 456.4462 217.4196 458.8046 214.9905 463.2484 218.545 463.4853 221.0748 468.5021 220.6416 474.0576 221.3671 478.6404 224.6155 484.4729 221.5988 492.683 219.1288 493.3908 216.5236 485.8943 213.6173 482.8674 211.1252 477.965 206.0355 477.9772 203.262 475.7597 204.9282 473.3849 205.5049 465.8367 199.5565 464.5131 196.3841 464.813 191.1178 466.7655 187.9419 468.8833 188.2455 473.6999 187.0242 480.3577 188.2762 485.9279 187.8722 490.4777 183.8791 493.9633 180.9371 490.891 178.0352 485.739 174.4423 487.1261 169.6871 484.2799 168.0491 477.5575 170.4869 473.8152 169.9123 471.5255 166.9374 469.809 164.7842 465.579 160.1796 460.6526 160.665 459.259 159.7436 450.4431 162.3681 445.3131 168.2085 441.3562 170.5608 435.4217 169.3261 429.5784 171.6393 427.8352 182.4218 428.5247 186.6539 427.3273 185.3154 423.6197 187.7314 420.9262 191.8411 419.7163 193.8862 426.3406 190.8404 430.4661 195.641 435.1282 195.616 439.3386 202.2417 444.9235 204.6412 449.8013 207.5144 451.1553 208.2438 453.9598 213.6448 450.9558 Z"/>
<path d="M 77.6417 189.7392 81.2621 192.3046 85.1411 193.0812 84.1547 196.4504 87.6562 202.3223 85.7697 205.9819 85.7841 210.9282 88.0299 214.4482 92.0276 215.3207 96.8031 229.8064 97.7474 239.7357 94.8621 235.2062 89.9728 238.038 85.8498 237.7171 82.2668 240.4554 81.1966 240.5985 79.4263 236.5971 76.4704 235.4502 74.6938 232.2511 72.0528 232.6833 68.8032 236.0121 66.3753 227.9654 63.8902 227.2217 63.4696 223.1965 66.192 221.6314 63.1319 218.8027 65.5491 216.023 60.9548 215.6403 59.2469 212.1331 60.0067 207.4414 62.1639 203.3123 72.2585 195.0555 70.1006 191.5943 71.0387 187.1815 77.6417 189.7392 Z"/>
<path d="M 193.4059 187.1895 198.8175 187.879 194.0624 193.2005 195.9241 200.442 197.5116 202.4544 201.6021 199.2177 205.2635 207.2566 209.572 206.7691 211.3188 211.5443 215.6013 210.3497 215.3306 213.9015 212.4155 217.2146 209.8016 217.817 206.4639 216.5777 202.6696 218.8248 198.8041 216.3934 191.5086 222.3359 186.744 220.3748 183.5884 225.2575 178.3622 224.1446 176.1057 226.6405 169.7282 227.7666 168.1414 225.5311 165.0846 230.225 161.6567 233.1695 155.6271 229.1315 152.9551 230.5759 151.4062 234.7757 145.6605 234.5167 143.2316 232.5781 142.5032 228.305 139.5872 226.0937 136.6278 220.0721 138.3221 218.1561 136.9726 208.8769 132.6544 203.475 136.2592 198.8761 140.7037 197.4502 140.932 190.5229 142.6805 190.4191 143.8583 185.9187 146.4015 185.4242 149.4201 188.1539 154.3844 187.1855 156.7908 181.9979 163.6986 181.776 168.1883 182.5225 170.9674 185.0533 174.8887 186.3497 178.4061 184.7886 183.912 187.597 186.9519 186.126 193.4059 187.1895 Z"/>
<path d="M 36.836 185.6887 44.649 189.7692 42.5126 193.5399 39.0164 194.525 35.3406 197.1682 36.0605 201.6953 40.306 204.1454 41.6454 207.0707 40.1866 209.9466 41.8919 219.377 46.6375 221.062 48.7635 223.3842 51.7658 221.588 55.5517 229.1988 52.3509 230.1261 44.3398 224.7044 39.5948 223.3025 37.3426 221.3469 35.4293 216.8991 35.5969 212.1966 34.2874 209.2025 27.7788 203.6504 26.5733 199.6739 22.851 198.0163 23.4238 194.4367 20.6268 191.0044 23.4351 186.4984 26.412 187.4562 29.1119 186.6282 32.7645 187.6154 36.836 185.6887 Z"/>
</g>
</svg>